%TF.GenerationSoftware,KiCad,Pcbnew,(6.0.2)*%
%TF.CreationDate,2022-07-19T18:02:22-05:00*%
%TF.ProjectId,REF1512B,52454631-3531-4324-922e-6b696361645f,rev?*%
%TF.SameCoordinates,Original*%
%TF.FileFunction,Copper,L2,Bot*%
%TF.FilePolarity,Positive*%
%FSLAX46Y46*%
G04 Gerber Fmt 4.6, Leading zero omitted, Abs format (unit mm)*
G04 Created by KiCad (PCBNEW (6.0.2)) date 2022-07-19 18:02:22*
%MOMM*%
%LPD*%
G01*
G04 APERTURE LIST*
%TA.AperFunction,NonConductor*%
%ADD10C,0.850000*%
%TD*%
%TA.AperFunction,ComponentPad*%
%ADD11R,1.700000X1.700000*%
%TD*%
%TA.AperFunction,ComponentPad*%
%ADD12C,1.700000*%
%TD*%
%TA.AperFunction,ComponentPad*%
%ADD13O,3.090000X2.250000*%
%TD*%
%TA.AperFunction,ComponentPad*%
%ADD14C,1.860000*%
%TD*%
%TA.AperFunction,ComponentPad*%
%ADD15C,2.020000*%
%TD*%
%TA.AperFunction,ComponentPad*%
%ADD16C,1.830000*%
%TD*%
%TA.AperFunction,ComponentPad*%
%ADD17C,4.800000*%
%TD*%
%TA.AperFunction,ViaPad*%
%ADD18C,0.800000*%
%TD*%
%TA.AperFunction,Conductor*%
%ADD19C,0.250000*%
%TD*%
%TA.AperFunction,Conductor*%
%ADD20C,0.550000*%
%TD*%
G04 APERTURE END LIST*
D10*
X130294300Y-62793200D02*
G75*
G03*
X130294300Y-62793200I-425000J0D01*
G01*
X125730200Y-62793200D02*
G75*
G03*
X125730200Y-62793200I-425000J0D01*
G01*
D11*
%TO.P,J4,1,VBUS*%
%TO.N,/VBUS*%
X129967000Y-75166000D03*
D12*
%TO.P,J4,2,D-*%
%TO.N,/D-*%
X129967000Y-72666000D03*
%TO.P,J4,3,D+*%
%TO.N,/D+*%
X127967000Y-72666000D03*
%TO.P,J4,4,GND*%
%TO.N,/GND*%
X127967000Y-75166000D03*
D13*
%TO.P,J4,5,Shield*%
X125257000Y-79936000D03*
X125257000Y-67896000D03*
%TD*%
D14*
%TO.P,J2,1,+3.3V/+5V*%
%TO.N,/VCC*%
X172479500Y-81608000D03*
%TO.P,J2,2,Clock*%
%TO.N,/Clk*%
X170933000Y-83116000D03*
%TO.P,J2,3,/WR*%
%TO.N,/Write*%
X169464600Y-81607900D03*
%TO.P,J2,4,/RD*%
%TO.N,/Rd_Game*%
X167916500Y-83114000D03*
%TO.P,J2,5,/CS.ROM*%
%TO.N,/CS.Rom.Game*%
X166446500Y-81608000D03*
%TO.P,J2,6,AD0*%
%TO.N,/AD0*%
X164900500Y-83116000D03*
%TO.P,J2,7,AD1*%
%TO.N,/AD1*%
X163432100Y-81607900D03*
%TO.P,J2,8,AD2*%
%TO.N,/AD2*%
X161882500Y-83115000D03*
%TO.P,J2,9,AD3*%
%TO.N,/AD3*%
X160456500Y-81609000D03*
%TO.P,J2,10,AD4*%
%TO.N,/AD4*%
X158907700Y-83116000D03*
%TO.P,J2,11,AD5*%
%TO.N,/AD5*%
X157399600Y-81607900D03*
%TO.P,J2,12,AD6*%
%TO.N,/AD6*%
X155847500Y-83116000D03*
%TO.P,J2,13,AD7*%
%TO.N,/AD7*%
X154383300Y-81607900D03*
%TO.P,J2,14,AD8*%
%TO.N,/AD8*%
X152833500Y-83116000D03*
%TO.P,J2,15,AD9*%
%TO.N,/AD9*%
X151447500Y-81607000D03*
%TO.P,J2,16,AD10*%
%TO.N,/AD10*%
X149896500Y-83117000D03*
%TO.P,J2,17,AD11*%
%TO.N,/AD11*%
X148426500Y-81608000D03*
%TO.P,J2,18,AD12*%
%TO.N,/AD12*%
X146881500Y-83115000D03*
%TO.P,J2,19,AD13*%
%TO.N,/AD13*%
X145412500Y-81609000D03*
%TO.P,J2,20,AD14*%
%TO.N,/AD14*%
X143864500Y-83117000D03*
%TO.P,J2,21,AD15*%
%TO.N,/AD15*%
X142396500Y-81607000D03*
%TO.P,J2,22,A16*%
%TO.N,/A16*%
X140851500Y-83115000D03*
%TO.P,J2,23,A17*%
%TO.N,/A17*%
X139418500Y-81606000D03*
%TO.P,J2,24,A18*%
%TO.N,/A18*%
X137874500Y-83116000D03*
%TO.P,J2,25,A19*%
%TO.N,/A19*%
X136483500Y-81611000D03*
%TO.P,J2,26,A20*%
%TO.N,/A20*%
X134932500Y-83114000D03*
%TO.P,J2,27,A21*%
%TO.N,/A21*%
X133387500Y-81609000D03*
%TO.P,J2,28,A22*%
%TO.N,/A22*%
X131880500Y-83116000D03*
%TO.P,J2,29,A23*%
%TO.N,/A23*%
X130373500Y-81609000D03*
%TO.P,J2,30,/CS.SRAM*%
%TO.N,/CS.SRAM*%
X128866500Y-83124000D03*
%TO.P,J2,31,/REQ*%
%TO.N,/REQ*%
X127351500Y-81609000D03*
%TO.P,J2,32,GND*%
%TO.N,/GND*%
X125848000Y-83116000D03*
%TD*%
D15*
%TO.P,J3,1,A*%
%TO.N,/GND*%
X166227000Y-71435000D03*
%TO.P,J3,2,B*%
%TO.N,/Switch*%
X169200000Y-71438000D03*
%TO.P,J3,3,C*%
X172103000Y-71437000D03*
%TO.P,J3,4,Case_GND*%
%TO.N,/GND*%
X162770000Y-71437000D03*
%TO.P,J3,5,Case_GND*%
X175552000Y-71439000D03*
%TD*%
D16*
%TO.P,SW1,1,1*%
%TO.N,/GND*%
X124097000Y-64952000D03*
%TO.P,SW1,2,2*%
%TO.N,/Button*%
X125370000Y-62809000D03*
%TO.P,SW1,3,3*%
%TO.N,/GND*%
X129821000Y-62769000D03*
%TO.P,SW1,4,4*%
X131127000Y-64952000D03*
%TD*%
D17*
%TO.P,REF2,1*%
%TO.N,N/C*%
X170787000Y-119748000D03*
%TD*%
%TO.P,REF1,1*%
%TO.N,N/C*%
X126923000Y-119706000D03*
%TD*%
D18*
%TO.N,/CS.Rom.Game*%
X136606900Y-109559000D03*
%TO.N,/Rd_Game*%
X143270900Y-109591100D03*
X152472400Y-114883000D03*
X155914000Y-106861300D03*
%TO.N,/50MHz*%
X165229200Y-114613100D03*
X169799600Y-110392900D03*
%TO.N,/P0-4*%
X141844500Y-68248900D03*
X161354700Y-106874500D03*
%TO.N,/P0-5*%
X143060500Y-68391400D03*
X164872600Y-98544100D03*
%TO.N,/P0-6*%
X147662000Y-68411900D03*
X172803000Y-90292700D03*
%TO.N,/P0-7*%
X145795000Y-67428100D03*
X171738000Y-90157900D03*
%TO.N,/P1-1*%
X147156700Y-67380600D03*
X174438300Y-76198300D03*
%TO.N,/P1-3*%
X148971400Y-66830500D03*
X162868400Y-119879700D03*
%TO.N,/P1-2*%
X157003300Y-74811800D03*
X160613100Y-117291700D03*
%TO.N,/P0-3*%
X149432300Y-73185600D03*
X161955600Y-120484100D03*
%TO.N,/P0-2*%
X148431900Y-73139100D03*
X161801700Y-117164600D03*
%TO.N,/P0-1*%
X164513000Y-73345700D03*
X165039100Y-118113700D03*
%TO.N,/P0-0*%
X141988700Y-76898500D03*
X160733500Y-107672900D03*
%TO.N,/REQ*%
X170563000Y-126963600D03*
%TO.N,/CS.SRAM*%
X169022300Y-126949000D03*
X128866500Y-88012900D03*
%TO.N,/A23*%
X158059000Y-123468400D03*
%TO.N,/A22*%
X161242700Y-124355800D03*
%TO.N,/A21*%
X161853300Y-125797800D03*
%TO.N,/A20*%
X130716000Y-88906300D03*
X154196800Y-123456200D03*
%TO.N,/A19*%
X156731400Y-113440600D03*
%TO.N,/A18*%
X153802200Y-117791500D03*
X159766100Y-126355900D03*
X155345600Y-112457600D03*
%TO.N,/A17*%
X154666600Y-111057900D03*
%TO.N,/A16*%
X154550900Y-109022000D03*
%TO.N,/CS.Rom.Sys*%
X141019400Y-113735100D03*
X131549000Y-126601300D03*
%TO.N,/Rd_Sys*%
X137814400Y-111763800D03*
X134784800Y-115424500D03*
%TO.N,/Write*%
X137597400Y-110549400D03*
X134189400Y-114542200D03*
%TO.N,/Clk*%
X127406400Y-126544000D03*
%TO.N,/SST.WE#*%
X155712500Y-93096600D03*
X159478900Y-91604500D03*
%TO.N,/SST.CE#*%
X132027800Y-88118700D03*
X142375200Y-109017000D03*
%TO.N,/SST.OE#*%
X134498400Y-91987200D03*
X143334000Y-105456300D03*
%TO.N,/AD0*%
X136089900Y-115509700D03*
X149911200Y-91612800D03*
%TO.N,/AD8*%
X146543600Y-89365200D03*
X146529100Y-118778600D03*
X144251800Y-124319100D03*
%TO.N,/AD1*%
X145466500Y-92809200D03*
X135505300Y-90471800D03*
X135608700Y-94588900D03*
X132988300Y-109886500D03*
X135732800Y-116892600D03*
%TO.N,/AD9*%
X140301900Y-89997400D03*
X146314600Y-126466400D03*
X145079700Y-89969300D03*
%TO.N,/AD2*%
X145476500Y-91808800D03*
X162161700Y-98495000D03*
X136261800Y-126859100D03*
%TO.N,/AD10*%
X143078500Y-118467100D03*
X144146200Y-91087400D03*
%TO.N,/AD3*%
X144262100Y-92087800D03*
X167766000Y-69487200D03*
X137733100Y-126928300D03*
%TO.N,/AD11*%
X136000600Y-91512800D03*
X147688600Y-109865600D03*
X133781200Y-86538800D03*
%TO.N,/AD4*%
X140692200Y-93168000D03*
X161821600Y-97485600D03*
X131056800Y-109862400D03*
X136548400Y-118822900D03*
%TO.N,/AD12*%
X152985700Y-106823800D03*
X142842800Y-93767900D03*
X143416200Y-85988700D03*
%TO.N,/AD5*%
X130826400Y-97058900D03*
X141226200Y-115276600D03*
%TO.N,/AD13*%
X144214700Y-93088200D03*
X154858400Y-106836400D03*
%TO.N,/AD6*%
X146712000Y-90948300D03*
X134492700Y-100889800D03*
X143486100Y-110603200D03*
%TO.N,/AD14*%
X144676700Y-94737200D03*
X154115700Y-107928000D03*
%TO.N,/AD7*%
X147411100Y-90143900D03*
X135292000Y-105696400D03*
X142237200Y-119261900D03*
%TO.N,/AD15*%
X144374600Y-96292300D03*
X141247600Y-100166800D03*
X151045000Y-111630300D03*
%TO.N,/SST.A16*%
X143474100Y-100992300D03*
X147936200Y-105448000D03*
%TO.N,/Const_High*%
X138121200Y-103919800D03*
X139951300Y-104098800D03*
%TO.N,/VCC*%
X138898800Y-123140200D03*
X158419000Y-106915600D03*
X156337000Y-101546100D03*
X163754300Y-124941600D03*
X154973000Y-120128400D03*
X142440000Y-125578100D03*
X145254200Y-115828100D03*
X152908700Y-101566900D03*
X133081300Y-123211800D03*
%TO.N,/Button*%
X158256700Y-119631700D03*
X132355700Y-89337500D03*
%TO.N,/Switch*%
X166133800Y-118132800D03*
%TO.N,/GND*%
X152757600Y-99315800D03*
X161779600Y-103545700D03*
X155766700Y-99595000D03*
X166762700Y-110072700D03*
X133321700Y-88168500D03*
X131334500Y-114877800D03*
X158646600Y-100260700D03*
X161166800Y-114463600D03*
%TD*%
D19*
%TO.N,/CS.Rom.Game*%
X164714500Y-79876000D02*
X166446500Y-81608000D01*
X158631600Y-79876000D02*
X164714500Y-79876000D01*
X157631200Y-78875600D02*
X158631600Y-79876000D01*
X128626300Y-78875600D02*
X157631200Y-78875600D01*
X126870400Y-77119700D02*
X128626300Y-78875600D01*
X123684300Y-77119700D02*
X126870400Y-77119700D01*
X121961400Y-78842600D02*
X123684300Y-77119700D01*
X121961400Y-88091400D02*
X121961400Y-78842600D01*
X129070500Y-95200500D02*
X121961400Y-88091400D01*
X129070500Y-102022600D02*
X129070500Y-95200500D01*
X136606900Y-109559000D02*
X129070500Y-102022600D01*
%TO.N,/Rd_Game*%
X143776100Y-109591100D02*
X143270900Y-109591100D01*
X149068000Y-114883000D02*
X143776100Y-109591100D01*
X152472400Y-114883000D02*
X149068000Y-114883000D01*
X155914000Y-105597900D02*
X155914000Y-106861300D01*
X151987900Y-101671800D02*
X155914000Y-105597900D01*
X151987900Y-99059700D02*
X151987900Y-101671800D01*
X158589400Y-92458200D02*
X151987900Y-99059700D01*
X159699600Y-92458200D02*
X158589400Y-92458200D01*
X167916500Y-84241300D02*
X159699600Y-92458200D01*
X167916500Y-83114000D02*
X167916500Y-84241300D01*
%TO.N,/50MHz*%
X165579400Y-114613100D02*
X169799600Y-110392900D01*
X165229200Y-114613100D02*
X165579400Y-114613100D01*
%TO.N,/P0-4*%
X149583200Y-75987600D02*
X141844500Y-68248900D01*
X157483700Y-75987600D02*
X149583200Y-75987600D01*
X159169700Y-77673600D02*
X157483700Y-75987600D01*
X171000200Y-77673600D02*
X159169700Y-77673600D01*
X174228300Y-80901700D02*
X171000200Y-77673600D01*
X174228300Y-83295800D02*
X174228300Y-80901700D01*
X165605300Y-91918800D02*
X174228300Y-83295800D01*
X165605300Y-96756400D02*
X165605300Y-91918800D01*
X161473100Y-100888600D02*
X165605300Y-96756400D01*
X161473100Y-101431800D02*
X161473100Y-100888600D01*
X161022400Y-101882500D02*
X161473100Y-101431800D01*
X161022400Y-106542200D02*
X161022400Y-101882500D01*
X161354700Y-106874500D02*
X161022400Y-106542200D01*
%TO.N,/P0-5*%
X143060600Y-68391400D02*
X143060500Y-68391400D01*
X143060600Y-68799600D02*
X143060600Y-68391400D01*
X149798200Y-75537200D02*
X143060600Y-68799600D01*
X158224000Y-75537200D02*
X149798200Y-75537200D01*
X159910000Y-77223200D02*
X158224000Y-75537200D01*
X171186700Y-77223200D02*
X159910000Y-77223200D01*
X174678700Y-80715200D02*
X171186700Y-77223200D01*
X174678700Y-83587900D02*
X174678700Y-80715200D01*
X166506000Y-91760600D02*
X174678700Y-83587900D01*
X166506000Y-96910700D02*
X166506000Y-91760600D01*
X164872600Y-98544100D02*
X166506000Y-96910700D01*
%TO.N,/P0-6*%
X176938000Y-86157700D02*
X172803000Y-90292700D01*
X176938000Y-79790000D02*
X176938000Y-86157700D01*
X172119600Y-74971600D02*
X176938000Y-79790000D01*
X163019400Y-74971600D02*
X172119600Y-74971600D01*
X156459700Y-68411900D02*
X163019400Y-74971600D01*
X147662000Y-68411900D02*
X156459700Y-68411900D01*
%TO.N,/P0-7*%
X176487700Y-85408200D02*
X171738000Y-90157900D01*
X176487700Y-79976600D02*
X176487700Y-85408200D01*
X171933000Y-75421900D02*
X176487700Y-79976600D01*
X162832800Y-75421900D02*
X171933000Y-75421900D01*
X157994200Y-70583300D02*
X162832800Y-75421900D01*
X148807700Y-70583300D02*
X157994200Y-70583300D01*
X145795000Y-67570600D02*
X148807700Y-70583300D01*
X145795000Y-67428100D02*
X145795000Y-67570600D01*
%TO.N,/P1-1*%
X147462700Y-67686600D02*
X147156700Y-67380600D01*
X156371300Y-67686600D02*
X147462700Y-67686600D01*
X163206000Y-74521300D02*
X156371300Y-67686600D01*
X172761300Y-74521300D02*
X163206000Y-74521300D01*
X174438300Y-76198300D02*
X172761300Y-74521300D01*
%TO.N,/P1-3*%
X156152100Y-66830500D02*
X148971400Y-66830500D01*
X163392600Y-74071000D02*
X156152100Y-66830500D01*
X173360900Y-74071000D02*
X163392600Y-74071000D01*
X177388300Y-78098400D02*
X173360900Y-74071000D01*
X177388300Y-90868200D02*
X177388300Y-78098400D01*
X171133800Y-97122700D02*
X177388300Y-90868200D01*
X171133800Y-110993400D02*
X171133800Y-97122700D01*
X171133700Y-110993400D02*
X171133800Y-110993400D01*
X162868400Y-119258700D02*
X171133700Y-110993400D01*
X162868400Y-119879700D02*
X162868400Y-119258700D01*
%TO.N,/P1-2*%
X158135500Y-74811800D02*
X157003300Y-74811800D01*
X160096500Y-76772800D02*
X158135500Y-74811800D01*
X171373200Y-76772800D02*
X160096500Y-76772800D01*
X175136800Y-80536400D02*
X171373200Y-76772800D01*
X175136800Y-83822600D02*
X175136800Y-80536400D01*
X168402900Y-90556500D02*
X175136800Y-83822600D01*
X168402900Y-109501900D02*
X168402900Y-90556500D01*
X160613100Y-117291700D02*
X168402900Y-109501900D01*
%TO.N,/P0-3*%
X159322700Y-73185600D02*
X149432300Y-73185600D01*
X162009300Y-75872200D02*
X159322700Y-73185600D01*
X171746400Y-75872200D02*
X162009300Y-75872200D01*
X176037400Y-80163200D02*
X171746400Y-75872200D01*
X176037400Y-84195800D02*
X176037400Y-80163200D01*
X170577100Y-89656100D02*
X176037400Y-84195800D01*
X170577100Y-110818300D02*
X170577100Y-89656100D01*
X161955600Y-119439800D02*
X170577100Y-110818300D01*
X161955600Y-120484100D02*
X161955600Y-119439800D01*
%TO.N,/P0-2*%
X148431900Y-73212000D02*
X148431900Y-73139100D01*
X149306400Y-74086500D02*
X148431900Y-73212000D01*
X159586700Y-74086500D02*
X149306400Y-74086500D01*
X161822700Y-76322500D02*
X159586700Y-74086500D01*
X171559800Y-76322500D02*
X161822700Y-76322500D01*
X175587100Y-80349800D02*
X171559800Y-76322500D01*
X175587100Y-84009200D02*
X175587100Y-80349800D01*
X169304500Y-90291800D02*
X175587100Y-84009200D01*
X169304500Y-109512000D02*
X169304500Y-90291800D01*
X161801700Y-117014800D02*
X169304500Y-109512000D01*
X161801700Y-117164600D02*
X161801700Y-117014800D01*
%TO.N,/P0-1*%
X173272500Y-73345700D02*
X164513000Y-73345700D01*
X177838600Y-77911800D02*
X173272500Y-73345700D01*
X177838600Y-91473700D02*
X177838600Y-77911800D01*
X172174900Y-97137400D02*
X177838600Y-91473700D01*
X172174900Y-110977900D02*
X172174900Y-97137400D01*
X165039100Y-118113700D02*
X172174900Y-110977900D01*
%TO.N,/P0-0*%
X157654400Y-76898500D02*
X141988700Y-76898500D01*
X159107600Y-78351700D02*
X157654400Y-76898500D01*
X171041400Y-78351700D02*
X159107600Y-78351700D01*
X173777900Y-81088200D02*
X171041400Y-78351700D01*
X173777900Y-83109300D02*
X173777900Y-81088200D01*
X164814200Y-92073000D02*
X173777900Y-83109300D01*
X164814200Y-96910600D02*
X164814200Y-92073000D01*
X161022800Y-100702000D02*
X164814200Y-96910600D01*
X161022800Y-101245200D02*
X161022800Y-100702000D01*
X160569800Y-101698200D02*
X161022800Y-101245200D01*
X160569800Y-107509200D02*
X160569800Y-101698200D01*
X160733500Y-107672900D02*
X160569800Y-107509200D01*
%TO.N,/REQ*%
X167893800Y-129632800D02*
X170563000Y-126963600D01*
X137349900Y-129632800D02*
X167893800Y-129632800D01*
X131905700Y-124188600D02*
X137349900Y-129632800D01*
X131905700Y-122724800D02*
X131905700Y-124188600D01*
X132781300Y-121849200D02*
X131905700Y-122724800D01*
X140734400Y-121849200D02*
X132781300Y-121849200D01*
X143828500Y-118755100D02*
X140734400Y-121849200D01*
X143828500Y-113539600D02*
X143828500Y-118755100D01*
X140289600Y-110000700D02*
X143828500Y-113539600D01*
X140289600Y-109031200D02*
X140289600Y-110000700D01*
X132172700Y-100914300D02*
X140289600Y-109031200D01*
X132172700Y-95399000D02*
X132172700Y-100914300D01*
X131968300Y-95194600D02*
X132172700Y-95399000D01*
X131968300Y-95040800D02*
X131968300Y-95194600D01*
X124584100Y-87656600D02*
X131968300Y-95040800D01*
X124584100Y-82604500D02*
X124584100Y-87656600D01*
X125579600Y-81609000D02*
X124584100Y-82604500D01*
X127351500Y-81609000D02*
X125579600Y-81609000D01*
%TO.N,/CS.SRAM*%
X166788900Y-129182400D02*
X169022300Y-126949000D01*
X137548800Y-129182400D02*
X166788900Y-129182400D01*
X132356000Y-123989600D02*
X137548800Y-129182400D01*
X132356000Y-122911400D02*
X132356000Y-123989600D01*
X132967900Y-122299500D02*
X132356000Y-122911400D01*
X140976200Y-122299500D02*
X132967900Y-122299500D01*
X144280900Y-118994800D02*
X140976200Y-122299500D01*
X144280900Y-113355100D02*
X144280900Y-118994800D01*
X140739900Y-109814100D02*
X144280900Y-113355100D01*
X140739900Y-108844600D02*
X140739900Y-109814100D01*
X132677400Y-100782100D02*
X140739900Y-108844600D01*
X132677400Y-95266800D02*
X132677400Y-100782100D01*
X132418600Y-95008000D02*
X132677400Y-95266800D01*
X132418600Y-94854200D02*
X132418600Y-95008000D01*
X128866500Y-91302100D02*
X132418600Y-94854200D01*
X128866500Y-88012900D02*
X128866500Y-91302100D01*
%TO.N,/A23*%
X130373500Y-83413000D02*
X130373500Y-81609000D01*
X132773400Y-85812900D02*
X130373500Y-83413000D01*
X134081100Y-85812900D02*
X132773400Y-85812900D01*
X134506500Y-86238300D02*
X134081100Y-85812900D01*
X134506500Y-86946400D02*
X134506500Y-86238300D01*
X136814700Y-89254600D02*
X134506500Y-86946400D01*
X136814700Y-97015300D02*
X136814700Y-89254600D01*
X145056700Y-105257300D02*
X136814700Y-97015300D01*
X145056700Y-106204600D02*
X145056700Y-105257300D01*
X150319700Y-111467600D02*
X145056700Y-106204600D01*
X150319700Y-111930700D02*
X150319700Y-111467600D01*
X150971400Y-112582400D02*
X150319700Y-111930700D01*
X152299200Y-112582400D02*
X150971400Y-112582400D01*
X158983700Y-119266900D02*
X152299200Y-112582400D01*
X158983700Y-122543700D02*
X158983700Y-119266900D01*
X158059000Y-123468400D02*
X158983700Y-122543700D01*
%TO.N,/A22*%
X159434000Y-122547100D02*
X161242700Y-124355800D01*
X159434000Y-119066800D02*
X159434000Y-122547100D01*
X152358400Y-111991200D02*
X159434000Y-119066800D01*
X152358400Y-111773900D02*
X152358400Y-111991200D01*
X146925000Y-106340500D02*
X152358400Y-111773900D01*
X146925000Y-105843700D02*
X146925000Y-106340500D01*
X142742700Y-101661400D02*
X146925000Y-105843700D01*
X142742700Y-100192100D02*
X142742700Y-101661400D01*
X137265000Y-94714400D02*
X142742700Y-100192100D01*
X137265000Y-89030700D02*
X137265000Y-94714400D01*
X134956800Y-86722500D02*
X137265000Y-89030700D01*
X134956800Y-86051700D02*
X134956800Y-86722500D01*
X132021200Y-83116100D02*
X134956800Y-86051700D01*
X131880500Y-83116100D02*
X132021200Y-83116100D01*
X131880500Y-83116000D02*
X131880500Y-83116100D01*
%TO.N,/A21*%
X161995800Y-125655300D02*
X161853300Y-125797800D01*
X161995800Y-122847600D02*
X161995800Y-125655300D01*
X159884300Y-120736100D02*
X161995800Y-122847600D01*
X159884300Y-118880200D02*
X159884300Y-120736100D01*
X152808700Y-111804600D02*
X159884300Y-118880200D01*
X152808700Y-111587200D02*
X152808700Y-111804600D01*
X148693300Y-107471800D02*
X152808700Y-111587200D01*
X148693300Y-105166100D02*
X148693300Y-107471800D01*
X143576200Y-100049000D02*
X148693300Y-105166100D01*
X143277000Y-100049000D02*
X143576200Y-100049000D01*
X138106800Y-94878800D02*
X143277000Y-100049000D01*
X138106800Y-89235600D02*
X138106800Y-94878800D01*
X135407100Y-86535900D02*
X138106800Y-89235600D01*
X135407100Y-85865100D02*
X135407100Y-86535900D01*
X133387500Y-83845500D02*
X135407100Y-85865100D01*
X133387500Y-81609000D02*
X133387500Y-83845500D01*
%TO.N,/A20*%
X154196800Y-122634100D02*
X154196800Y-123456200D01*
X141190200Y-109627500D02*
X154196800Y-122634100D01*
X141190200Y-108658000D02*
X141190200Y-109627500D01*
X133130100Y-100597900D02*
X141190200Y-108658000D01*
X133130100Y-95082600D02*
X133130100Y-100597900D01*
X132868900Y-94821400D02*
X133130100Y-95082600D01*
X132868900Y-94540400D02*
X132868900Y-94821400D01*
X130716000Y-92387500D02*
X132868900Y-94540400D01*
X130716000Y-88906300D02*
X130716000Y-92387500D01*
%TO.N,/A19*%
X155291800Y-113440600D02*
X156731400Y-113440600D01*
X153259000Y-111407800D02*
X155291800Y-113440600D01*
X153259000Y-111342900D02*
X153259000Y-111407800D01*
X149143600Y-107227500D02*
X153259000Y-111342900D01*
X149143600Y-104979500D02*
X149143600Y-107227500D01*
X143762800Y-99598700D02*
X149143600Y-104979500D01*
X143470800Y-99598700D02*
X143762800Y-99598700D01*
X138557100Y-94685000D02*
X143470800Y-99598700D01*
X138557100Y-89049000D02*
X138557100Y-94685000D01*
X136483500Y-86975400D02*
X138557100Y-89049000D01*
X136483500Y-81611000D02*
X136483500Y-86975400D01*
%TO.N,/A18*%
X155785200Y-122375000D02*
X159766100Y-126355900D01*
X155785200Y-119774500D02*
X155785200Y-122375000D01*
X153802200Y-117791500D02*
X155785200Y-119774500D01*
X155040400Y-112457600D02*
X155345600Y-112457600D01*
X150132700Y-107549900D02*
X155040400Y-112457600D01*
X150132700Y-105331700D02*
X150132700Y-107549900D01*
X143949400Y-99148400D02*
X150132700Y-105331700D01*
X143657400Y-99148400D02*
X143949400Y-99148400D01*
X139007400Y-94498400D02*
X143657400Y-99148400D01*
X139007400Y-84248900D02*
X139007400Y-94498400D01*
X137874500Y-83116000D02*
X139007400Y-84248900D01*
%TO.N,/A17*%
X154283400Y-111057900D02*
X154666600Y-111057900D01*
X150583000Y-107357500D02*
X154283400Y-111057900D01*
X150583000Y-105145100D02*
X150583000Y-107357500D01*
X144136000Y-98698100D02*
X150583000Y-105145100D01*
X143844000Y-98698100D02*
X144136000Y-98698100D01*
X139457700Y-94311800D02*
X143844000Y-98698100D01*
X139457700Y-81645200D02*
X139457700Y-94311800D01*
X139418500Y-81606000D02*
X139457700Y-81645200D01*
%TO.N,/A16*%
X154158200Y-109022000D02*
X154550900Y-109022000D01*
X151933900Y-106797700D02*
X154158200Y-109022000D01*
X151933900Y-104585300D02*
X151933900Y-106797700D01*
X144366200Y-97017600D02*
X151933900Y-104585300D01*
X144074200Y-97017600D02*
X144366200Y-97017600D01*
X141534700Y-94478100D02*
X144074200Y-97017600D01*
X141534700Y-83798200D02*
X141534700Y-94478100D01*
X140851500Y-83115000D02*
X141534700Y-83798200D01*
%TO.N,/CS.Rom.Sys*%
X131455400Y-126507700D02*
X131549000Y-126601300D01*
X131455400Y-122538200D02*
X131455400Y-126507700D01*
X132594700Y-121398900D02*
X131455400Y-122538200D01*
X134998200Y-121398900D02*
X132594700Y-121398900D01*
X140051900Y-116345200D02*
X134998200Y-121398900D01*
X140051900Y-114702600D02*
X140051900Y-116345200D01*
X141019400Y-113735100D02*
X140051900Y-114702600D01*
%TO.N,/Rd_Sys*%
X137814400Y-112394900D02*
X134784800Y-115424500D01*
X137814400Y-111763800D02*
X137814400Y-112394900D01*
%TO.N,/Write*%
X135256200Y-113475400D02*
X134189400Y-114542200D01*
X135256200Y-110549400D02*
X135256200Y-113475400D01*
X137597400Y-110549400D02*
X135256200Y-110549400D01*
X167282400Y-79425700D02*
X169464600Y-81607900D01*
X158818200Y-79425700D02*
X167282400Y-79425700D01*
X157817800Y-78425300D02*
X158818200Y-79425700D01*
X128812900Y-78425300D02*
X157817800Y-78425300D01*
X127057000Y-76669400D02*
X128812900Y-78425300D01*
X123497700Y-76669400D02*
X127057000Y-76669400D01*
X121511100Y-78656000D02*
X123497700Y-76669400D01*
X121511100Y-88278000D02*
X121511100Y-78656000D01*
X128620200Y-95387100D02*
X121511100Y-88278000D01*
X128620200Y-103913400D02*
X128620200Y-95387100D01*
X135256200Y-110549400D02*
X128620200Y-103913400D01*
%TO.N,/Clk*%
X127406400Y-123100500D02*
X127406400Y-126544000D01*
X132059900Y-118447000D02*
X127406400Y-123100500D01*
X132059900Y-114466100D02*
X132059900Y-118447000D01*
X127252700Y-109658900D02*
X132059900Y-114466100D01*
X127252700Y-95946800D02*
X127252700Y-109658900D01*
X121060800Y-89754900D02*
X127252700Y-95946800D01*
X121060800Y-78469400D02*
X121060800Y-89754900D01*
X123311100Y-76219100D02*
X121060800Y-78469400D01*
X127243600Y-76219100D02*
X123311100Y-76219100D01*
X128999500Y-77975000D02*
X127243600Y-76219100D01*
X158094000Y-77975000D02*
X128999500Y-77975000D01*
X159094400Y-78975400D02*
X158094000Y-77975000D01*
X168655600Y-78975400D02*
X159094400Y-78975400D01*
X170933000Y-81252800D02*
X168655600Y-78975400D01*
X170933000Y-83116000D02*
X170933000Y-81252800D01*
%TO.N,/SST.WE#*%
X157204600Y-91604500D02*
X159478900Y-91604500D01*
X155712500Y-93096600D02*
X157204600Y-91604500D01*
%TO.N,/SST.CE#*%
X142375200Y-107424400D02*
X142375200Y-109017000D01*
X140676700Y-105725900D02*
X142375200Y-107424400D01*
X140676700Y-103425000D02*
X140676700Y-105725900D01*
X133606600Y-96354900D02*
X140676700Y-103425000D01*
X133606600Y-94922200D02*
X133606600Y-96354900D01*
X133319200Y-94634800D02*
X133606600Y-94922200D01*
X133319200Y-93998000D02*
X133319200Y-94634800D01*
X131589000Y-92267800D02*
X133319200Y-93998000D01*
X131589000Y-88557500D02*
X131589000Y-92267800D01*
X132027800Y-88118700D02*
X131589000Y-88557500D01*
%TO.N,/SST.OE#*%
X143334000Y-104808400D02*
X143334000Y-105456300D01*
X135770700Y-97245100D02*
X143334000Y-104808400D01*
X135770700Y-95812500D02*
X135770700Y-97245100D01*
X134498400Y-94540200D02*
X135770700Y-95812500D01*
X134498400Y-91987200D02*
X134498400Y-94540200D01*
%TO.N,/AD0*%
X138544700Y-113054900D02*
X136089900Y-115509700D01*
X138544700Y-110803400D02*
X138544700Y-113054900D01*
X138488400Y-110747100D02*
X138544700Y-110803400D01*
X138488400Y-110414500D02*
X138488400Y-110747100D01*
X134945900Y-106872000D02*
X138488400Y-110414500D01*
X134805000Y-106872000D02*
X134945900Y-106872000D01*
X129863500Y-101930500D02*
X134805000Y-106872000D01*
X129863500Y-95356600D02*
X129863500Y-101930500D01*
X122411700Y-87904800D02*
X129863500Y-95356600D01*
X122411700Y-79029200D02*
X122411700Y-87904800D01*
X123870900Y-77570000D02*
X122411700Y-79029200D01*
X126683800Y-77570000D02*
X123870900Y-77570000D01*
X128439700Y-79325900D02*
X126683800Y-77570000D01*
X155210600Y-79325900D02*
X128439700Y-79325900D01*
X156211100Y-80326400D02*
X155210600Y-79325900D01*
X163994300Y-80326400D02*
X156211100Y-80326400D01*
X164900500Y-81232600D02*
X163994300Y-80326400D01*
X164900500Y-83116000D02*
X164900500Y-81232600D01*
X149911200Y-91612700D02*
X149911200Y-91612800D01*
X156403800Y-91612700D02*
X149911200Y-91612700D01*
X164900500Y-83116000D02*
X156403800Y-91612700D01*
%TO.N,/AD8*%
X146529100Y-122041800D02*
X146529100Y-118778600D01*
X144251800Y-124319100D02*
X146529100Y-122041800D01*
X146584300Y-89365200D02*
X146543600Y-89365200D01*
X152833500Y-83116000D02*
X146584300Y-89365200D01*
%TO.N,/AD1*%
X135269700Y-94249900D02*
X135608700Y-94588900D01*
X135269700Y-90707400D02*
X135269700Y-94249900D01*
X135505300Y-90471800D02*
X135269700Y-90707400D01*
X147689100Y-92809200D02*
X145466500Y-92809200D01*
X150209900Y-90288400D02*
X147689100Y-92809200D01*
X156514000Y-90288400D02*
X150209900Y-90288400D01*
X163432100Y-83370300D02*
X156514000Y-90288400D01*
X163432100Y-81607900D02*
X163432100Y-83370300D01*
X135227000Y-116892600D02*
X135732800Y-116892600D01*
X133438600Y-115104200D02*
X135227000Y-116892600D01*
X133438600Y-110336800D02*
X133438600Y-115104200D01*
X132988300Y-109886500D02*
X133438600Y-110336800D01*
%TO.N,/AD9*%
X145079800Y-89969300D02*
X145079700Y-89969300D01*
X145079800Y-89795400D02*
X145079800Y-89969300D01*
X151447500Y-83427700D02*
X145079800Y-89795400D01*
X151447500Y-81607000D02*
X151447500Y-83427700D01*
X147679700Y-127831500D02*
X146314600Y-126466400D01*
X161923200Y-127831500D02*
X147679700Y-127831500D01*
X164479600Y-125275100D02*
X161923200Y-127831500D01*
X164479600Y-124641100D02*
X164479600Y-125275100D01*
X164054800Y-124216300D02*
X164479600Y-124641100D01*
X164001400Y-124216300D02*
X164054800Y-124216300D01*
X160334600Y-120549500D02*
X164001400Y-124216300D01*
X160334600Y-118693600D02*
X160334600Y-120549500D01*
X158111000Y-116470000D02*
X160334600Y-118693600D01*
X158111000Y-113476500D02*
X158111000Y-116470000D01*
X154832100Y-110197600D02*
X158111000Y-113476500D01*
X154060000Y-110197600D02*
X154832100Y-110197600D01*
X151033300Y-107170900D02*
X154060000Y-110197600D01*
X151033300Y-104958500D02*
X151033300Y-107170900D01*
X144322600Y-98247800D02*
X151033300Y-104958500D01*
X144030600Y-98247800D02*
X144322600Y-98247800D01*
X139908000Y-94125200D02*
X144030600Y-98247800D01*
X139908000Y-90391300D02*
X139908000Y-94125200D01*
X140301900Y-89997400D02*
X139908000Y-90391300D01*
%TO.N,/AD2*%
X145729700Y-91808800D02*
X145476500Y-91808800D01*
X146089100Y-92168200D02*
X145729700Y-91808800D01*
X147693200Y-92168200D02*
X146089100Y-92168200D01*
X150023300Y-89838100D02*
X147693200Y-92168200D01*
X155159400Y-89838100D02*
X150023300Y-89838100D01*
X161882500Y-83115000D02*
X155159400Y-89838100D01*
X160572500Y-100084200D02*
X162161700Y-98495000D01*
X160572500Y-101058600D02*
X160572500Y-100084200D01*
X159837800Y-101793300D02*
X160572500Y-101058600D01*
X159837800Y-117559900D02*
X159837800Y-101793300D01*
X160784900Y-118507000D02*
X159837800Y-117559900D01*
X160784900Y-120355200D02*
X160784900Y-118507000D01*
X164195700Y-123766000D02*
X160784900Y-120355200D01*
X164323200Y-123766000D02*
X164195700Y-123766000D01*
X164943800Y-124386600D02*
X164323200Y-123766000D01*
X164943800Y-125469400D02*
X164943800Y-124386600D01*
X162131400Y-128281800D02*
X164943800Y-125469400D01*
X143260400Y-128281800D02*
X162131400Y-128281800D01*
X141136300Y-126157700D02*
X143260400Y-128281800D01*
X136963200Y-126157700D02*
X141136300Y-126157700D01*
X136261800Y-126859100D02*
X136963200Y-126157700D01*
%TO.N,/AD10*%
X149896500Y-83117000D02*
X149734700Y-83117000D01*
X144146200Y-88705500D02*
X144146200Y-91087400D01*
X149734700Y-83117000D02*
X144146200Y-88705500D01*
X143078500Y-113426500D02*
X143078500Y-118467100D01*
X139839300Y-110187300D02*
X143078500Y-113426500D01*
X139839300Y-109217800D02*
X139839300Y-110187300D01*
X131722400Y-101100900D02*
X139839300Y-109217800D01*
X131722400Y-95585600D02*
X131722400Y-101100900D01*
X131518000Y-95381200D02*
X131722400Y-95585600D01*
X131518000Y-95227400D02*
X131518000Y-95381200D01*
X123370600Y-87080000D02*
X131518000Y-95227400D01*
X123370600Y-79344100D02*
X123370600Y-87080000D01*
X124244000Y-78470700D02*
X123370600Y-79344100D01*
X126310700Y-78470700D02*
X124244000Y-78470700D01*
X128190600Y-80350600D02*
X126310700Y-78470700D01*
X148966200Y-80350600D02*
X128190600Y-80350600D01*
X149734700Y-81119100D02*
X148966200Y-80350600D01*
X149734700Y-83117000D02*
X149734700Y-81119100D01*
%TO.N,/AD3*%
X167968200Y-69285000D02*
X167766000Y-69487200D01*
X175286600Y-69285000D02*
X167968200Y-69285000D01*
X178739200Y-72737600D02*
X175286600Y-69285000D01*
X178739200Y-96310500D02*
X178739200Y-72737600D01*
X174936600Y-100113100D02*
X178739200Y-96310500D01*
X174936600Y-111215700D02*
X174936600Y-100113100D01*
X167299000Y-118853300D02*
X174936600Y-111215700D01*
X167299000Y-123798400D02*
X167299000Y-118853300D01*
X162365300Y-128732100D02*
X167299000Y-123798400D01*
X139536900Y-128732100D02*
X162365300Y-128732100D01*
X137733100Y-126928300D02*
X139536900Y-128732100D01*
X144262100Y-91997300D02*
X144262100Y-92087800D01*
X145226100Y-91033300D02*
X144262100Y-91997300D01*
X145726800Y-91033300D02*
X145226100Y-91033300D01*
X146411300Y-91717800D02*
X145726800Y-91033300D01*
X147506700Y-91717800D02*
X146411300Y-91717800D01*
X149836700Y-89387800D02*
X147506700Y-91717800D01*
X154450700Y-89387800D02*
X149836700Y-89387800D01*
X160456500Y-83382000D02*
X154450700Y-89387800D01*
X160456500Y-81609000D02*
X160456500Y-83382000D01*
%TO.N,/AD11*%
X144156200Y-106333200D02*
X147688600Y-109865600D01*
X144156200Y-104993700D02*
X144156200Y-106333200D01*
X136364400Y-97201900D02*
X144156200Y-104993700D01*
X136364400Y-91876600D02*
X136364400Y-97201900D01*
X136000600Y-91512800D02*
X136364400Y-91876600D01*
X133781200Y-87347000D02*
X133781200Y-86538800D01*
X136273400Y-89839200D02*
X133781200Y-87347000D01*
X136273400Y-91240000D02*
X136273400Y-89839200D01*
X136000600Y-91512800D02*
X136273400Y-91240000D01*
%TO.N,/AD4*%
X136520400Y-118822900D02*
X136548400Y-118822900D01*
X132988300Y-115290800D02*
X136520400Y-118822900D01*
X132988300Y-111793900D02*
X132988300Y-115290800D01*
X131056800Y-109862400D02*
X132988300Y-111793900D01*
X160122200Y-99185000D02*
X161821600Y-97485600D01*
X160122200Y-100872000D02*
X160122200Y-99185000D01*
X159187400Y-101806800D02*
X160122200Y-100872000D01*
X159187400Y-107221900D02*
X159187400Y-101806800D01*
X156662000Y-109747300D02*
X159187400Y-107221900D01*
X154246600Y-109747300D02*
X156662000Y-109747300D01*
X151483600Y-106984300D02*
X154246600Y-109747300D01*
X151483600Y-104771900D02*
X151483600Y-106984300D01*
X144509200Y-97797500D02*
X151483600Y-104771900D01*
X144217200Y-97797500D02*
X144509200Y-97797500D01*
X140692200Y-94272500D02*
X144217200Y-97797500D01*
X140692200Y-93168000D02*
X140692200Y-94272500D01*
%TO.N,/AD12*%
X143416200Y-86439000D02*
X143416200Y-85988700D01*
X142520300Y-87334900D02*
X143416200Y-86439000D01*
X142520300Y-93445400D02*
X142520300Y-87334900D01*
X142842800Y-93767900D02*
X142520300Y-93445400D01*
X152985700Y-104999700D02*
X152985700Y-106823800D01*
X145394600Y-97408600D02*
X152985700Y-104999700D01*
X145394600Y-96278400D02*
X145394600Y-97408600D01*
X144578700Y-95462500D02*
X145394600Y-96278400D01*
X144366700Y-95462500D02*
X144578700Y-95462500D01*
X142842800Y-93938600D02*
X144366700Y-95462500D01*
X142842800Y-93767900D02*
X142842800Y-93938600D01*
%TO.N,/AD5*%
X130826400Y-95263300D02*
X130826400Y-97058900D01*
X122862000Y-87298900D02*
X130826400Y-95263300D01*
X122862000Y-79215800D02*
X122862000Y-87298900D01*
X124057500Y-78020300D02*
X122862000Y-79215800D01*
X126497200Y-78020300D02*
X124057500Y-78020300D01*
X128370000Y-79893100D02*
X126497200Y-78020300D01*
X154792400Y-79893100D02*
X128370000Y-79893100D01*
X156507200Y-81607900D02*
X154792400Y-79893100D01*
X157399600Y-81607900D02*
X156507200Y-81607900D01*
X141783200Y-114719600D02*
X141226200Y-115276600D01*
X141783200Y-113405000D02*
X141783200Y-114719600D01*
X138938700Y-110560500D02*
X141783200Y-113405000D01*
X138938700Y-110146200D02*
X138938700Y-110560500D01*
X135214200Y-106421700D02*
X138938700Y-110146200D01*
X134991600Y-106421700D02*
X135214200Y-106421700D01*
X130826400Y-102256500D02*
X134991600Y-106421700D01*
X130826400Y-97058900D02*
X130826400Y-102256500D01*
%TO.N,/AD13*%
X143420900Y-92294400D02*
X144214700Y-93088200D01*
X143420900Y-88497000D02*
X143420900Y-92294400D01*
X145412500Y-86505400D02*
X143420900Y-88497000D01*
X145412500Y-81609000D02*
X145412500Y-86505400D01*
X154858400Y-105182500D02*
X154858400Y-106836400D01*
X149604000Y-99928100D02*
X154858400Y-105182500D01*
X149604000Y-98477500D02*
X149604000Y-99928100D01*
X144214700Y-93088200D02*
X149604000Y-98477500D01*
%TO.N,/AD6*%
X142928800Y-110603200D02*
X143486100Y-110603200D01*
X141640500Y-109314900D02*
X142928800Y-110603200D01*
X141640500Y-108471400D02*
X141640500Y-109314900D01*
X134492700Y-101323600D02*
X141640500Y-108471400D01*
X134492700Y-100889800D02*
X134492700Y-101323600D01*
X147639300Y-90948300D02*
X146712000Y-90948300D01*
X155471600Y-83116000D02*
X147639300Y-90948300D01*
X155847500Y-83116000D02*
X155471600Y-83116000D01*
%TO.N,/AD14*%
X144676700Y-94575900D02*
X144676700Y-94737200D01*
X142970600Y-92869800D02*
X144676700Y-94575900D01*
X142970600Y-87910400D02*
X142970600Y-92869800D01*
X144141500Y-86739500D02*
X142970600Y-87910400D01*
X144141500Y-83394000D02*
X144141500Y-86739500D01*
X143864500Y-83117000D02*
X144141500Y-83394000D01*
X154115700Y-105267500D02*
X154115700Y-107928000D01*
X148734200Y-99886000D02*
X154115700Y-105267500D01*
X148734200Y-98794700D02*
X148734200Y-99886000D01*
X144676700Y-94737200D02*
X148734200Y-98794700D01*
%TO.N,/AD7*%
X142237200Y-113222100D02*
X142237200Y-119261900D01*
X139389000Y-110373900D02*
X142237200Y-113222100D01*
X139389000Y-109793400D02*
X139389000Y-110373900D01*
X135292000Y-105696400D02*
X139389000Y-109793400D01*
X147607800Y-90143900D02*
X147411100Y-90143900D01*
X154383300Y-83368400D02*
X147607800Y-90143900D01*
X154383300Y-81607900D02*
X154383300Y-83368400D01*
%TO.N,/AD15*%
X142396500Y-86821800D02*
X142396500Y-81607000D01*
X142069900Y-87148400D02*
X142396500Y-86821800D01*
X142069900Y-94083900D02*
X142069900Y-87148400D01*
X144278300Y-96292300D02*
X142069900Y-94083900D01*
X144374600Y-96292300D02*
X144278300Y-96292300D01*
X151045000Y-111097400D02*
X151045000Y-111630300D01*
X146031100Y-106083500D02*
X151045000Y-111097400D01*
X146031100Y-105586800D02*
X146031100Y-106083500D01*
X141247600Y-100803300D02*
X146031100Y-105586800D01*
X141247600Y-100166800D02*
X141247600Y-100803300D01*
%TO.N,/SST.A16*%
X147929800Y-105448000D02*
X147936200Y-105448000D01*
X143474100Y-100992300D02*
X147929800Y-105448000D01*
%TO.N,/Const_High*%
X138300200Y-104098800D02*
X139951300Y-104098800D01*
X138121200Y-103919800D02*
X138300200Y-104098800D01*
D20*
%TO.N,/VCC*%
X157968600Y-127231200D02*
X155110200Y-124372800D01*
X161674500Y-127231200D02*
X157968600Y-127231200D01*
X163754300Y-125151400D02*
X161674500Y-127231200D01*
X163754300Y-124941600D02*
X163754300Y-125151400D01*
X155110200Y-120265600D02*
X154973000Y-120128400D01*
X155110200Y-124372800D02*
X155110200Y-120265600D01*
X141332100Y-124470200D02*
X142440000Y-125578100D01*
X141332100Y-123140200D02*
X141332100Y-124470200D01*
X146675800Y-117478000D02*
X146077600Y-117478000D01*
X153570600Y-124372800D02*
X146675800Y-117478000D01*
X155110200Y-124372800D02*
X153570600Y-124372800D01*
X145279900Y-119192400D02*
X141332100Y-123140200D01*
X145279900Y-118275700D02*
X145279900Y-119192400D01*
X146077600Y-117478000D02*
X145279900Y-118275700D01*
X146077600Y-116651500D02*
X145254200Y-115828100D01*
X146077600Y-117478000D02*
X146077600Y-116651500D01*
X158419000Y-101546100D02*
X158419000Y-106915600D01*
X172479500Y-83558600D02*
X172479500Y-81608000D01*
X159521900Y-96516200D02*
X172479500Y-83558600D01*
X159521900Y-100623300D02*
X159521900Y-96516200D01*
X158599100Y-101546100D02*
X159521900Y-100623300D01*
X158419000Y-101546100D02*
X158599100Y-101546100D01*
X141332100Y-123140200D02*
X138898800Y-123140200D01*
X133152900Y-123140200D02*
X133081300Y-123211800D01*
X138898800Y-123140200D02*
X133152900Y-123140200D01*
X158419000Y-101546100D02*
X156337000Y-101546100D01*
X156316200Y-101566900D02*
X152908700Y-101566900D01*
X156337000Y-101546100D02*
X156316200Y-101566900D01*
D19*
%TO.N,/Button*%
X151657700Y-113032700D02*
X158256700Y-119631700D01*
X149819500Y-113032700D02*
X151657700Y-113032700D01*
X141802400Y-105015600D02*
X149819500Y-113032700D01*
X141802400Y-103913700D02*
X141802400Y-105015600D01*
X135095300Y-97206600D02*
X141802400Y-103913700D01*
X135095300Y-95774000D02*
X135095300Y-97206600D01*
X133769500Y-94448200D02*
X135095300Y-95774000D01*
X133769500Y-90751300D02*
X133769500Y-94448200D01*
X132355700Y-89337500D02*
X133769500Y-90751300D01*
%TO.N,/Switch*%
X172103000Y-71438000D02*
X169200000Y-71438000D01*
X172103000Y-71438000D02*
X172103000Y-71437000D01*
X178288900Y-77623900D02*
X172103000Y-71438000D01*
X178288900Y-95910500D02*
X178288900Y-77623900D01*
X173329100Y-100870300D02*
X178288900Y-95910500D01*
X173329100Y-110937500D02*
X173329100Y-100870300D01*
X166133800Y-118132800D02*
X173329100Y-110937500D01*
D20*
%TO.N,/GND*%
X125257000Y-67896000D02*
X125257000Y-66295700D01*
X125257000Y-66295700D02*
X125257000Y-65321400D01*
X124887600Y-64952000D02*
X125257000Y-65321400D01*
X124097000Y-64952000D02*
X124887600Y-64952000D01*
X130757600Y-65321400D02*
X131127000Y-64952000D01*
X125257000Y-65321400D02*
X130757600Y-65321400D01*
X125257000Y-67896000D02*
X125257000Y-69496300D01*
X162772000Y-71435000D02*
X166227000Y-71435000D01*
X162770000Y-71437000D02*
X162772000Y-71435000D01*
X173998400Y-69885400D02*
X175552000Y-71439000D01*
X168605700Y-69885400D02*
X173998400Y-69885400D01*
X167056100Y-71435000D02*
X168605700Y-69885400D01*
X166227000Y-71435000D02*
X167056100Y-71435000D01*
X125933200Y-73132200D02*
X125549000Y-73132200D01*
X127967000Y-75166000D02*
X125933200Y-73132200D01*
X125257000Y-72840200D02*
X125257000Y-69496300D01*
X125549000Y-73132200D02*
X125257000Y-72840200D01*
X132278900Y-87125700D02*
X133321700Y-88168500D01*
X129857700Y-87125700D02*
X132278900Y-87125700D01*
X125848000Y-83116000D02*
X129857700Y-87125700D01*
X123618600Y-107161900D02*
X131334500Y-114877800D01*
X123618600Y-96699300D02*
X123618600Y-107161900D01*
X120448700Y-93529400D02*
X123618600Y-96699300D01*
X120448700Y-78232500D02*
X120448700Y-93529400D01*
X125549000Y-73132200D02*
X120448700Y-78232500D01*
X155487500Y-99315800D02*
X155766700Y-99595000D01*
X152757600Y-99315800D02*
X155487500Y-99315800D01*
X157980900Y-99595000D02*
X158646600Y-100260700D01*
X155766700Y-99595000D02*
X157980900Y-99595000D01*
X166762700Y-110072700D02*
X165557700Y-110072700D01*
X165557700Y-107323800D02*
X161779600Y-103545700D01*
X165557700Y-110072700D02*
X165557700Y-107323800D01*
X165557700Y-110072700D02*
X161166800Y-114463600D01*
%TD*%
M02*
