%TF.GenerationSoftware,KiCad,Pcbnew,(6.0.2)*%
%TF.CreationDate,2022-07-19T18:02:22-05:00*%
%TF.ProjectId,REF1512B,52454631-3531-4324-922e-6b696361645f,rev?*%
%TF.SameCoordinates,Original*%
%TF.FileFunction,Soldermask,Top*%
%TF.FilePolarity,Negative*%
%FSLAX46Y46*%
G04 Gerber Fmt 4.6, Leading zero omitted, Abs format (unit mm)*
G04 Created by KiCad (PCBNEW (6.0.2)) date 2022-07-19 18:02:22*
%MOMM*%
%LPD*%
G01*
G04 APERTURE LIST*
%ADD10R,1.700000X1.700000*%
%ADD11C,1.700000*%
%ADD12O,3.090000X2.250000*%
%ADD13R,1.500000X1.500000*%
%ADD14C,1.860000*%
%ADD15C,2.020000*%
%ADD16R,1.310000X1.310000*%
%ADD17R,1.350000X1.550000*%
%ADD18C,1.830000*%
%ADD19R,1.030000X7.780000*%
%ADD20R,1.430000X7.780000*%
%ADD21R,0.470000X2.000000*%
%ADD22R,2.000000X0.470000*%
%ADD23R,1.300000X0.300000*%
%ADD24R,0.600000X1.750000*%
%ADD25C,4.800000*%
G04 APERTURE END LIST*
D10*
%TO.C,J4*%
X129967000Y-75166000D03*
D11*
X129967000Y-72666000D03*
X127967000Y-72666000D03*
X127967000Y-75166000D03*
D12*
X125257000Y-79936000D03*
X125257000Y-67896000D03*
%TD*%
D13*
%TO.C,C1*%
X159040000Y-72238000D03*
X159040000Y-69024000D03*
%TD*%
D14*
%TO.C,J2*%
X172479500Y-81608000D03*
X170933000Y-83116000D03*
X169464600Y-81607900D03*
X167916500Y-83114000D03*
X166446500Y-81608000D03*
X164900500Y-83116000D03*
X163432100Y-81607900D03*
X161882500Y-83115000D03*
X160456500Y-81609000D03*
X158907700Y-83116000D03*
X157399600Y-81607900D03*
X155847500Y-83116000D03*
X154383300Y-81607900D03*
X152833500Y-83116000D03*
X151447500Y-81607000D03*
X149896500Y-83117000D03*
X148426500Y-81608000D03*
X146881500Y-83115000D03*
X145412500Y-81609000D03*
X143864500Y-83117000D03*
X142396500Y-81607000D03*
X140851500Y-83115000D03*
X139418500Y-81606000D03*
X137874500Y-83116000D03*
X136483500Y-81611000D03*
X134932500Y-83114000D03*
X133387500Y-81609000D03*
X131880500Y-83116000D03*
X130373500Y-81609000D03*
X128866500Y-83124000D03*
X127351500Y-81609000D03*
X125848000Y-83116000D03*
%TD*%
D15*
%TO.C,J3*%
X166227000Y-71435000D03*
X169200000Y-71438000D03*
X172103000Y-71437000D03*
X162770000Y-71437000D03*
X175552000Y-71439000D03*
%TD*%
D16*
%TO.C,C6*%
X140614000Y-124273000D03*
X142440000Y-124273000D03*
%TD*%
%TO.C,R1*%
X138678000Y-71283000D03*
X138678000Y-69457000D03*
%TD*%
D13*
%TO.C,C2*%
X172889000Y-78145000D03*
X172889000Y-74931000D03*
%TD*%
D17*
%TO.C,X1*%
X172286000Y-115420000D03*
X172285000Y-110340000D03*
X168518000Y-110340000D03*
X168514000Y-115419000D03*
%TD*%
D16*
%TO.C,C4*%
X132364000Y-113522000D03*
X132364000Y-111696000D03*
%TD*%
D18*
%TO.C,SW1*%
X124097000Y-64952000D03*
X125370000Y-62809000D03*
X129821000Y-62769000D03*
X131127000Y-64952000D03*
%TD*%
D19*
%TO.C,J1*%
X125549000Y-131459000D03*
X127056000Y-131459000D03*
X128551000Y-131459000D03*
X130058000Y-131459000D03*
X131549000Y-131459000D03*
X133056000Y-131459000D03*
X134551000Y-131459000D03*
X136058000Y-131469000D03*
X137552000Y-131464000D03*
X139051000Y-131468000D03*
X140570000Y-131468000D03*
X142053000Y-131468000D03*
X143560000Y-131468000D03*
X145053000Y-131467000D03*
X146560000Y-131467000D03*
X148067000Y-131467000D03*
X149550000Y-131467000D03*
X151052000Y-131467000D03*
X152558000Y-131467000D03*
X154053000Y-131467000D03*
X155560000Y-131467000D03*
X157055000Y-131467000D03*
X158559000Y-131472000D03*
X160054000Y-131460000D03*
X161549000Y-131460000D03*
X163056000Y-131460000D03*
X164556000Y-131459000D03*
X166051000Y-131459000D03*
X167570000Y-131459000D03*
X169059000Y-131466000D03*
X170554000Y-131466000D03*
D20*
X172252000Y-131466000D03*
%TD*%
D21*
%TO.C,U3*%
X141995000Y-121850000D03*
X142644000Y-121849000D03*
X143296000Y-121853000D03*
X143944000Y-121853000D03*
X144593000Y-121849000D03*
X145245000Y-121849000D03*
X145897000Y-121849000D03*
X146544000Y-121852000D03*
X147194000Y-121852000D03*
X147846000Y-121852000D03*
X148495000Y-121850000D03*
X149144000Y-121852000D03*
X149793000Y-121848000D03*
X150445000Y-121848000D03*
X151096000Y-121851000D03*
X151743000Y-121851000D03*
X152395000Y-121849000D03*
X153044000Y-121849000D03*
X153695000Y-121849000D03*
X154344000Y-121851000D03*
X154998000Y-121852000D03*
X155645000Y-121852000D03*
X156294000Y-121852000D03*
X156944000Y-121852000D03*
X157595000Y-121851000D03*
X158244000Y-121851000D03*
X158894000Y-121854000D03*
X159544000Y-121852000D03*
X160192000Y-121852000D03*
X160848000Y-121852000D03*
D22*
X163421000Y-119025000D03*
X163420000Y-118378000D03*
X163418000Y-117726000D03*
X163418000Y-117078000D03*
X163420000Y-116424000D03*
X163418000Y-115777000D03*
X163420000Y-115122000D03*
X163418000Y-114476000D03*
X163418000Y-113827000D03*
X163420000Y-113178000D03*
X163418000Y-112528000D03*
X163420000Y-111876000D03*
X163420000Y-111227000D03*
X163420000Y-110578000D03*
X163420000Y-109926000D03*
X163420000Y-109273000D03*
X163418000Y-108626000D03*
X163420000Y-107977000D03*
X163420000Y-107326000D03*
X163418000Y-106676000D03*
D21*
X160843000Y-103851000D03*
X160195000Y-103847000D03*
X159545000Y-103848000D03*
X158893000Y-103848000D03*
X158244000Y-103848000D03*
X157596000Y-103848000D03*
X156942000Y-103853000D03*
X156294000Y-103853000D03*
X155645000Y-103849000D03*
X154994000Y-103853000D03*
X154346000Y-103850000D03*
X153694000Y-103853000D03*
X153046000Y-103850000D03*
X152394000Y-103850000D03*
X151745000Y-103850000D03*
X151094000Y-103851000D03*
X150445000Y-103851000D03*
X149793000Y-103851000D03*
X149145000Y-103851000D03*
X148493000Y-103851000D03*
X147845000Y-103847000D03*
X147196000Y-103847000D03*
X146543000Y-103849000D03*
X145891000Y-103849000D03*
X145245000Y-103854000D03*
X144593000Y-103850000D03*
X143944000Y-103850000D03*
X143292000Y-103850000D03*
X142647000Y-103850000D03*
X141995000Y-103850000D03*
D22*
X139418000Y-106671000D03*
X139418000Y-107323000D03*
X139422000Y-107972000D03*
X139422000Y-108622000D03*
X139418000Y-109277000D03*
X139418000Y-109922000D03*
X139415000Y-110574000D03*
X139420000Y-111225000D03*
X139418000Y-111874000D03*
X139418000Y-112525000D03*
X139418000Y-113176000D03*
X139418000Y-113826000D03*
X139421000Y-114479000D03*
X139421000Y-115127000D03*
X139418000Y-115774000D03*
X139418000Y-116423000D03*
X139420000Y-117078000D03*
X139420000Y-117725000D03*
X139418000Y-118377000D03*
X139420000Y-119026000D03*
%TD*%
D23*
%TO.C,U2*%
X156968000Y-98197000D03*
X156968000Y-97697000D03*
X156968000Y-97197000D03*
X156968000Y-96697000D03*
X156968000Y-96197000D03*
X156968000Y-95697000D03*
X156968000Y-95197000D03*
X156968000Y-94697000D03*
X156968000Y-94197000D03*
X156968000Y-93697000D03*
X156968000Y-93197000D03*
X156968000Y-92697000D03*
X156968000Y-92197000D03*
X156968000Y-91697000D03*
X156968000Y-91197000D03*
X156968000Y-90697000D03*
X156968000Y-90197000D03*
X156968000Y-89697000D03*
X156968000Y-89197000D03*
X156968000Y-88697000D03*
X156968000Y-88197000D03*
X156968000Y-87697000D03*
X156968000Y-87197000D03*
X156968000Y-86697000D03*
X137268000Y-86697000D03*
X137268000Y-87197000D03*
X137268000Y-87697000D03*
X137268000Y-88197000D03*
X137268000Y-88697000D03*
X137268000Y-89197000D03*
X137268000Y-89697000D03*
X137268000Y-90197000D03*
X137268000Y-90697000D03*
X137268000Y-91197000D03*
X137268000Y-91697000D03*
X137268000Y-92197000D03*
X137268000Y-92697000D03*
X137268000Y-93197000D03*
X137268000Y-93697000D03*
X137268000Y-94197000D03*
X137268000Y-94697000D03*
X137268000Y-95197000D03*
X137268000Y-95697000D03*
X137268000Y-96197000D03*
X137268000Y-96697000D03*
X137268000Y-97197000D03*
X137268000Y-97697000D03*
X137268000Y-98197000D03*
%TD*%
D24*
%TO.C,U1*%
X141984000Y-75072000D03*
X143249000Y-75077000D03*
X144524000Y-75077000D03*
X145794000Y-75075000D03*
X147062000Y-75075000D03*
X148338000Y-75075000D03*
X149607000Y-75073000D03*
X150879000Y-75073000D03*
X152144000Y-75074000D03*
X153416000Y-75074000D03*
X154684000Y-75074000D03*
X155955000Y-75074000D03*
X155954000Y-65422000D03*
X154686000Y-65422000D03*
X153418000Y-65423000D03*
X152148000Y-65423000D03*
X150874000Y-65421000D03*
X149605000Y-65424000D03*
X148334000Y-65421000D03*
X147065000Y-65423000D03*
X145795000Y-65420000D03*
X144525000Y-65425000D03*
X143255000Y-65421000D03*
X141987000Y-65424000D03*
%TD*%
D16*
%TO.C,R3*%
X131172000Y-92708000D03*
X131172000Y-90882000D03*
%TD*%
D25*
%TO.C,REF2*%
X170787000Y-119748000D03*
%TD*%
D16*
%TO.C,R2*%
X170466000Y-77265000D03*
X170466000Y-75439000D03*
%TD*%
%TO.C,C5*%
X136499000Y-113466000D03*
X136499000Y-111640000D03*
%TD*%
D25*
%TO.C,REF1*%
X126923000Y-119706000D03*
%TD*%
D16*
%TO.C,C7*%
X165429000Y-112188000D03*
X165429000Y-110362000D03*
%TD*%
%TO.C,R4*%
X130465000Y-113362000D03*
X130465000Y-111536000D03*
%TD*%
%TO.C,C3*%
X133197000Y-92714000D03*
X133197000Y-90888000D03*
%TD*%
M02*
