M48
; DRILL file {KiCad (6.0.2)} date Tue Jul 19 18:02:24 2022
; FORMAT={-:-/ absolute / metric / decimal}
; #@! TF.CreationDate,2022-07-19T18:02:24-05:00
; #@! TF.GenerationSoftware,Kicad,Pcbnew,(6.0.2)
; #@! TF.FileFunction,Plated,1,2,PTH
FMAT,2
METRIC
; #@! TA.AperFunction,Plated,PTH,ViaDrill
T1C0.400
; #@! TA.AperFunction,Plated,PTH,ComponentDrill
T2C0.920
; #@! TA.AperFunction,Plated,PTH,ComponentDrill
T3C1.070
; #@! TA.AperFunction,Plated,PTH,ComponentDrill
T4C1.200
; #@! TA.AperFunction,Plated,PTH,ComponentDrill
T5C1.270
; #@! TA.AperFunction,Plated,PTH,ComponentDrill
T6C1.700
; #@! TA.AperFunction,Plated,PTH,ComponentDrill
T7C4.450
%
G90
G05
T1
X127.406Y-126.544
X128.867Y-88.013
X130.716Y-88.906
X130.826Y-97.059
X131.057Y-109.862
X131.334Y-114.878
X131.549Y-126.601
X132.028Y-88.119
X132.356Y-89.337
X132.988Y-109.886
X133.081Y-123.212
X133.322Y-88.168
X133.781Y-86.539
X134.189Y-114.542
X134.493Y-100.89
X134.498Y-91.987
X134.785Y-115.424
X135.292Y-105.696
X135.505Y-90.472
X135.609Y-94.589
X135.733Y-116.893
X136.001Y-91.513
X136.09Y-115.51
X136.262Y-126.859
X136.548Y-118.823
X136.607Y-109.559
X137.597Y-110.549
X137.733Y-126.928
X137.814Y-111.764
X138.121Y-103.92
X138.899Y-123.14
X139.951Y-104.099
X140.302Y-89.997
X140.692Y-93.168
X141.019Y-113.735
X141.226Y-115.277
X141.248Y-100.167
X141.844Y-68.249
X141.989Y-76.898
X142.237Y-119.262
X142.375Y-109.017
X142.44Y-125.578
X142.843Y-93.768
X143.06Y-68.391
X143.078Y-118.467
X143.271Y-109.591
X143.334Y-105.456
X143.416Y-85.989
X143.474Y-100.992
X143.486Y-110.603
X144.146Y-91.087
X144.215Y-93.088
X144.252Y-124.319
X144.262Y-92.088
X144.375Y-96.292
X144.677Y-94.737
X145.08Y-89.969
X145.254Y-115.828
X145.466Y-92.809
X145.476Y-91.809
X145.795Y-67.428
X146.315Y-126.466
X146.529Y-118.779
X146.544Y-89.365
X146.712Y-90.948
X147.157Y-67.381
X147.411Y-90.144
X147.662Y-68.412
X147.689Y-109.866
X147.936Y-105.448
X148.432Y-73.139
X148.971Y-66.831
X149.432Y-73.186
X149.911Y-91.613
X151.045Y-111.63
X152.472Y-114.883
X152.758Y-99.316
X152.909Y-101.567
X152.986Y-106.824
X153.802Y-117.791
X154.116Y-107.928
X154.197Y-123.456
X154.551Y-109.022
X154.667Y-111.058
X154.858Y-106.836
X154.973Y-120.128
X155.346Y-112.458
X155.713Y-93.097
X155.767Y-99.595
X155.914Y-106.861
X156.337Y-101.546
X156.731Y-113.441
X157.003Y-74.812
X158.059Y-123.468
X158.257Y-119.632
X158.419Y-106.916
X158.647Y-100.261
X159.479Y-91.605
X159.766Y-126.356
X160.613Y-117.292
X160.733Y-107.673
X161.167Y-114.464
X161.243Y-124.356
X161.355Y-106.874
X161.78Y-103.546
X161.802Y-117.165
X161.822Y-97.486
X161.853Y-125.798
X161.956Y-120.484
X162.162Y-98.495
X162.868Y-119.88
X163.754Y-124.942
X164.513Y-73.346
X164.873Y-98.544
X165.039Y-118.114
X165.229Y-114.613
X166.134Y-118.133
X166.763Y-110.073
X167.766Y-69.487
X169.022Y-126.949
X169.8Y-110.393
X170.563Y-126.964
X171.738Y-90.158
X172.803Y-90.293
X174.438Y-76.198
T2
X127.967Y-72.666
X127.967Y-75.166
X129.967Y-72.666
X129.967Y-75.166
T3
X162.77Y-71.437
X166.227Y-71.435
X169.2Y-71.438
X172.103Y-71.437
X175.552Y-71.439
T4
X125.848Y-83.116
X127.351Y-81.609
X128.867Y-83.124
X130.374Y-81.609
X131.88Y-83.116
X133.387Y-81.609
X134.933Y-83.114
X136.483Y-81.611
X137.874Y-83.116
X139.418Y-81.606
X140.851Y-83.115
X142.397Y-81.607
X143.864Y-83.117
X145.412Y-81.609
X146.881Y-83.115
X148.427Y-81.608
X149.897Y-83.117
X151.447Y-81.607
X152.833Y-83.116
X154.383Y-81.608
X155.847Y-83.116
X157.4Y-81.608
X158.908Y-83.116
X160.457Y-81.609
X161.882Y-83.115
X163.432Y-81.608
X164.9Y-83.116
X166.446Y-81.608
X167.916Y-83.114
X169.465Y-81.608
X170.933Y-83.116
X172.48Y-81.608
T5
X124.097Y-64.952
X125.37Y-62.809
X129.821Y-62.769
X131.127Y-64.952
T7
X126.923Y-119.706
X170.787Y-119.748
T6
G00X125.617Y-67.896
M15
G01X124.897Y-67.896
M16
G05
G00X125.617Y-79.936
M15
G01X124.897Y-79.936
M16
G05
T0
M30
