%TF.GenerationSoftware,KiCad,Pcbnew,(6.0.2)*%
%TF.CreationDate,2022-07-19T18:02:22-05:00*%
%TF.ProjectId,REF1512B,52454631-3531-4324-922e-6b696361645f,rev?*%
%TF.SameCoordinates,Original*%
%TF.FileFunction,Profile,NP*%
%FSLAX46Y46*%
G04 Gerber Fmt 4.6, Leading zero omitted, Abs format (unit mm)*
G04 Created by KiCad (PCBNEW (6.0.2)) date 2022-07-19 18:02:22*
%MOMM*%
%LPD*%
G01*
G04 APERTURE LIST*
%TA.AperFunction,Profile*%
%ADD10C,0.002000*%
%TD*%
G04 APERTURE END LIST*
D10*
X123122000Y-59511600D02*
X123122000Y-64512000D01*
X122122000Y-101386000D02*
G75*
G03*
X121377000Y-100662000I-713915J10682D01*
G01*
X175996080Y-100662000D02*
X179271800Y-100662000D01*
X175272000Y-101407121D02*
X175272000Y-122356000D01*
X118121800Y-100662000D02*
X118121800Y-66012000D01*
X174141000Y-122356000D02*
G75*
G03*
X173417000Y-123101121I-10570J-714029D01*
G01*
X123122000Y-59511600D02*
X174272000Y-59511600D01*
X122122000Y-101386000D02*
X122122000Y-122356000D01*
X124334000Y-123080000D02*
X124334000Y-135361600D01*
X174141000Y-122356000D02*
X175272000Y-122356000D01*
X174272000Y-64512000D02*
X175772000Y-66012000D01*
X173417000Y-135361600D02*
X124334000Y-135361600D01*
X123122000Y-64512000D02*
X121622000Y-66012000D01*
X124334000Y-123080000D02*
G75*
G03*
X123589000Y-122356000I-713915J10682D01*
G01*
X175772000Y-66012000D02*
X179271800Y-66012000D01*
X173417000Y-123101121D02*
X173417000Y-135361600D01*
X118121800Y-100662000D02*
X121377000Y-100662000D01*
X179271800Y-66012000D02*
X179271800Y-100662000D01*
X174272000Y-59511600D02*
X174272000Y-64512000D01*
X122122000Y-122356000D02*
X123589000Y-122356000D01*
X175996080Y-100662000D02*
G75*
G03*
X175272000Y-101407121I-10573J-714103D01*
G01*
X118121800Y-66012000D02*
X121622000Y-66012000D01*
M02*
